<?xml version="1.0"?>
<svg xmlns="http://www.w3.org/2000/svg" xmlns:xlink="http://www.w3.org/1999/xlink" xmlns:svgjs="http://svgjs.com/svgjs" version="1.1" width="512" height="512" x="0" y="0" viewBox="0 0 512.001 512.001" style="enable-background:new 0 0 512 512" xml:space="preserve" class=""><g>
<g xmlns="http://www.w3.org/2000/svg">
	<rect x="231.825" y="142.521" style="" width="48.279" height="33.388" fill="#6f6f6f" data-original="#6f6f6f" class=""/>
	<rect x="231.825" y="294.57" style="" width="48.279" height="33.388" fill="#6f6f6f" data-original="#6f6f6f" class=""/>
</g>
<path xmlns="http://www.w3.org/2000/svg" style="" d="M89.534,301.704c-39.71,0.001-69.752-26.871-82.809-74.37c-8.454-30.754-8.959-67.613-1.388-101.127  c8.378-37.092,25.224-64.02,47.431-75.823c14.838-7.886,31.586-8.761,48.43-2.534c16.425,6.072,33.216,19.021,49.909,38.488  l-25.345,21.735C109.994,89.685,87.25,69.868,68.438,79.865C39.763,95.106,24.59,166.36,38.919,218.485  c6.475,23.56,20.982,51.311,53.331,49.766l0.801-0.02l138.844-0.001v33.388L93.433,301.62  C92.124,301.676,90.821,301.704,89.534,301.704z" fill="#d7d7d7" data-original="#d7d7d7" class=""/>
<path xmlns="http://www.w3.org/2000/svg" style="" d="M422.466,301.704c-1.291,0-2.588-0.028-3.899-0.085l-138.462-0.001V268.23l139.244,0.001l0.4,0.02  c32.333,1.545,46.856-26.206,53.331-49.766c14.329-52.126-0.845-123.378-29.518-138.62c-18.811-9.999-41.556,9.821-57.322,28.206  l-25.345-21.735c16.693-19.466,33.484-32.415,49.909-38.488c16.844-6.229,33.593-5.354,48.43,2.534  c22.208,11.803,39.053,38.731,47.431,75.823c7.571,33.514,7.066,70.373-1.388,101.127  C492.219,274.832,462.17,301.702,422.466,301.704z" fill="#b0b0b0" data-original="#b0b0b0" class=""/>
<path xmlns="http://www.w3.org/2000/svg" style="" d="M248.588,352.335H76.357V162.349c0-47.485,38.631-86.116,86.116-86.116s86.116,38.631,86.116,86.116  V352.335z" fill="#b5e45f" data-original="#b5e45f" class=""/>
<g xmlns="http://www.w3.org/2000/svg">
	<rect x="101.656" y="376.984" style="" width="33.388" height="54.823" fill="#d0abdb" data-original="#92e5ea" class=""/>
	<rect x="189.901" y="376.984" style="" width="33.388" height="54.823" fill="#d0abdb" data-original="#92e5ea" class=""/>
	<rect x="145.784" y="376.984" style="" width="33.388" height="91.272" fill="#d0abdb" data-original="#92e5ea" class=""/>
</g>
<g xmlns="http://www.w3.org/2000/svg">
	<rect x="288.708" y="376.984" style="" width="33.388" height="54.823" fill="#a880b3" data-original="#79bbbc" class=""/>
	<rect x="376.953" y="376.984" style="" width="33.388" height="54.823" fill="#a880b3" data-original="#79bbbc" class=""/>
	<rect x="332.836" y="376.984" style="" width="33.388" height="91.272" fill="#a880b3" data-original="#79bbbc" class=""/>
</g>
<path xmlns="http://www.w3.org/2000/svg" style="" d="M435.642,352.335H263.41V162.349c0-47.485,38.631-86.116,86.116-86.116s86.116,38.631,86.116,86.116  L435.642,352.335L435.642,352.335z" fill="#7dbb4e" data-original="#7dbb4e" class=""/>
<rect xmlns="http://www.w3.org/2000/svg" x="76.359" y="268.227" style="" width="172.227" height="33.388" fill="#ececed" data-original="#ececed"/>
<rect xmlns="http://www.w3.org/2000/svg" x="263.41" y="268.227" style="" width="172.227" height="33.388" fill="#d7d7d7" data-original="#d7d7d7" class=""/>
<g xmlns="http://www.w3.org/2000/svg">
</g>
<g xmlns="http://www.w3.org/2000/svg">
</g>
<g xmlns="http://www.w3.org/2000/svg">
</g>
<g xmlns="http://www.w3.org/2000/svg">
</g>
<g xmlns="http://www.w3.org/2000/svg">
</g>
<g xmlns="http://www.w3.org/2000/svg">
</g>
<g xmlns="http://www.w3.org/2000/svg">
</g>
<g xmlns="http://www.w3.org/2000/svg">
</g>
<g xmlns="http://www.w3.org/2000/svg">
</g>
<g xmlns="http://www.w3.org/2000/svg">
</g>
<g xmlns="http://www.w3.org/2000/svg">
</g>
<g xmlns="http://www.w3.org/2000/svg">
</g>
<g xmlns="http://www.w3.org/2000/svg">
</g>
<g xmlns="http://www.w3.org/2000/svg">
</g>
<g xmlns="http://www.w3.org/2000/svg">
</g>
</g></svg>
