<svg id="Capa_1" enable-background="new 0 0 512 512" height="512" viewBox="0 0 512 512" width="512" xmlns="http://www.w3.org/2000/svg"><g><path d="m.005 256c0-141.384 114.614-256 255.997-256 141.162 0 256.172 115.159 255.998 256.323-.107 86.458-43.072 162.875-108.792 209.146-31.459-13.806-66.225-21.469-102.78-21.469-53.407 0-102.993 16.354-144.025 44.328-1.984 1.353-4.526 1.62-6.71.622-88.32-40.372-149.688-129.494-149.688-232.95z" fill="#55a4f9"/><path d="m470.966 256c0 118.723-96.243 214.968-214.966 214.968-118.722 0-214.966-96.245-214.966-214.968s96.244-214.968 214.966-214.968c118.723 0 214.966 96.245 214.966 214.968z" fill="#76b6fa"/><path d="m210.236 146.394c-1.506 1.616-28.622 118.644-34.456 129.316-3.501 6.403-10.667 6.983-17.228 1.652-.767-.623-1.531-1.266-2.29-1.929-18.221-15.897-29.324-38.983-30.659-60.036-.001-.001-.002-.002-.003-.003 6.462-13.462 17.844-26.035 32.049-35.036-7.652-21.129-7.104-44.637.323-62.854l-.001-.004c16.497-13.147 41.062-20.42 65.077-17.591 1.001.118 1.99.252 2.967.402 22.269 3.421-7.361 37.052-15.779 46.083zm207.71-88.036c-.156-.725-.326-1.454-.509-2.186-4.389-17.57-15.396-32.681-28.087-40.504 0 .001-.001.001-.002.002-8.166-.037-16.914 2.196-25.106 6.431-9.292-7.933-19.807-13.51-30.186-16.038 0 .001-.001.002-.002.003-8.26 2.693-16.479 7.392-23.959 13.671-12.061-5.64-24.929-8.566-36.915-8.427 0 .001-.001.002-.001.004-18.469 10.634-34.405 31.025-40.645 54.644-.26.984-.5 1.964-.721 2.938-5.041 22.209 37.593 6.797 49.174 2.24 2.065-.813 56.383-7.153 56.383-7.153 1.997-.077 84.136 10.892 80.576-5.625z" fill="#3342ae"/><path d="m272.372 511.485c-5.413.342-10.871.515-16.369.515-10.258 0-20.376-.604-30.32-1.777-37.428-4.417-64.978-37.194-63.256-74.842 4.839-105.782 14.59-263.73 51.942-328.803 2.324-4.049 4.675-8.048 7.049-11.998 62.582-104.072 168.725-27.542 110.166 79.43-2.222 4.059-4.495 8.115-6.819 12.164-13.694 23.857 7.994 127.699 28.455 216.386 12.33 53.445-26.108 105.47-80.848 108.925z" fill="#ac3586"/><path d="m269.61 511.644c14.967-49.501 12.625-100.421-7.846-143.797-19.049-40.364-22.689-86.385-8.57-128.726 6.573-19.712 13.76-38.01 21.533-54.184 2.286-4.757 4.606-9.461 6.956-14.111 24.817-49.099 59.675-66.42 88.863-61.479.986 21.36-4.509 46.196-18.99 72.695-2.49 4.557-5.038 9.11-7.643 13.656-20.333 35.485 36.034 178.22 60.811 268.695-38.469 27.503-84.873 44.62-135.114 47.251z" fill="#d12898"/><path d="m343.913 195.698c-9.013 15.73-2.955 52.536 8.743 96.522 9.212 34.639-16.818 68.622-52.661 68.622-27.64 0-50.876-20.689-54.151-48.135-2.933-24.581-.624-49.67 7.35-73.585 6.573-19.712 13.76-38.01 21.533-54.184 2.286-4.757 4.606-9.461 6.956-14.111 24.817-49.099 59.675-66.42 88.863-61.479.986 21.36-4.509 46.196-18.99 72.695-2.49 4.556-5.038 9.109-7.643 13.655z" fill="#ff2ea6"/><path d="m207.738 113.141c-2.201-.755-4.405-1.549-6.61-2.382-9.461-3.574-18.432-7.676-26.819-12.194.129-3.765-.792-7.61-2.878-11.079-5.33-8.867-16.39-12.17-25.595-8.018.396-6.544-1.113-13.272-4.746-19.315-6.087-10.127-14.037-16.512-25.025-16.898 0 0 2.218-6.354 6.468-7.787 28.502-9.615 60.864-2.473 101.767 12.979 2.204.833 4.381 1.693 6.531 2.582 43.875 18.141 21.816 77.513-23.093 62.112zm226.974-9.169c1.984-1.216 3.962-2.472 5.932-3.765 8.455-5.55 16.316-11.508 23.518-17.744-.946-3.647-.885-7.6.395-11.44 3.27-9.815 13.345-15.448 23.233-13.402-1.812-6.301-1.805-13.195.424-19.885 3.465-10.4 11.522-17.978 21.166-21.231.75-.253.632-4.819-3.828-5.292-29.912-3.174-65.08 6.151-101.634 30.144-1.97 1.293-3.907 2.607-5.811 3.943-38.87 27.264-3.87 83.488 36.605 58.672z" fill="#232e7a"/><path d="m225.078 115.457c11.069-17.544 7.471-44.041-19.962-55.227-1.826-.745-3.671-1.469-5.536-2.174-3.52-1.33-7.037-2.559-10.544-3.691-26.626-8.589-19.626-28.761 11.849-21.17 8.721 2.104 17.579 4.822 26.453 8.174 1.865.704 3.71 1.429 5.536 2.174 41.652 16.985 28.359 69.265-7.796 71.914zm193.215-5.447c-14.626-14.711-16.887-41.355 7.449-58.25 1.62-1.125 3.263-2.234 4.929-3.327 8.402-5.514 16.94-10.33 25.471-14.439 18.913-9.108 8.682-25.949-14.187-17.332-13.947 5.255-28.165 12.446-42.012 21.534-1.666 1.094-3.309 2.203-4.929 3.327-36.949 25.652-12.585 73.779 23.279 68.487z" fill="#ff2ea6"/><path d="m511.646 15.855c-.139.444-.282.89-.429 1.335-17.283 2.062-36.162 7.694-55.075 16.803-7.975-4.576-13.194-10.624-14.187-17.332 22.87-8.616 45.011-12.026 63.591-10.056 4.508.479 7.454 4.924 6.1 9.25zm-394.255 17.693c-4.296 1.449-6.202 6.429-3.939 10.356.232.404.469.807.709 1.21 22.204-2.249 48.249.661 74.874 9.251 7.462-5.88 11.852-13.076 11.852-20.848 0-.107-.001-.215-.003-.322-31.473-7.591-61.175-7.174-83.493.353z" fill="#ff50b5"/><path d="m379.232 324.969c-59.653-24.013-110.696-77.34-136.993-147.561-4.9-13.085-16.196-56.228-16.86-59.978-17.512-98.831 183.626-134.145 208.662-36.948.95 3.688 1.834 7.414 2.65 11.175 19.592 90.265-4.868 178.049-57.459 233.312z" fill="#c43f9a"/><path d="m306.587 153.266c-10.963 7.938-26.154 10.029-40.137 4.213s-23.211-18.062-25.312-31.433c10.963-7.938 26.153-10.028 40.137-4.212 13.983 5.815 23.211 18.061 25.312 31.432zm123.624-60.527c-13.202-2.985-27.99 1.068-38.558 11.915-10.569 10.848-14.236 25.736-10.908 38.856 13.202 2.985 27.99-1.068 38.559-11.915 10.568-10.848 14.235-25.736 10.907-38.856z" fill="#ac3586"/><path d="m430.625 92.422c0 2.762-2.239 5-5 5-22.645 0-41.069 18.424-41.069 41.069 0 2.762-2.239 5-5 5s-5-2.238-5-5c0-28.16 22.909-51.069 51.069-51.069 2.761 0 5 2.238 5 5zm-149.489 26.992c-12.537-5.362-26.419-5.515-39.088-.432-2.563 1.027-3.807 3.938-2.779 6.502 1.028 2.563 3.937 3.81 6.502 2.779 10.191-4.087 21.355-3.963 31.435.345 10.08 4.31 17.883 12.295 21.97 22.486.783 1.953 2.659 3.14 4.642 3.14.62 0 1.249-.115 1.86-.36 2.563-1.027 3.807-3.938 2.779-6.502-5.082-12.67-14.785-22.599-27.321-27.958z" fill="#852968"/><path d="m413.218 429.75c-1.974 24.749 19.317 42.458 15.778 47.945-3.809 5.907-34.338-5.515-41.204-29.426-.007-.023-.01-.034-.021-.072-3.61-12.631-8.522-22.823-14.032-31.116-.791-.587-3.152-2.178-5.55-1.497-3.322.944-5.576 5.923-4.461 12.011-1.474-1.332-2.967-2.643-4.479-3.932-7.678-6.546-13.705-15.62-16.798-26.42-2.92-10.197-2.806-20.473-.218-29.683 2.618-9.317 2.734-19.12.762-28.595-.022-.108-.044-.215-.066-.323-4.462-22.092 4.918-44.05 22.55-58.279 21.772 6.27 38.94 22.866 43.402 44.958.126.622.24 1.244.344 1.866 1.614 9.664 6.022 18.584 11.992 26.352 4.078 5.306 7.284 11.541 9.274 18.492 3.093 10.801 2.782 21.689-.267 31.307-2.146 6.77-3.936 13.639-5.404 20.58-2.591-3.296-5.254-6.025-7.906-8.087-1.539 3.286-3.222 7.977-3.696 13.919z" fill="#ffcd71"/><path d="m393.331 418.736c-13.228-7.996-24.639-25.754-29.101-47.847-4.462-22.092-.839-42.888 8.249-55.391 13.228 7.996 24.639 25.754 29.102 47.847 4.462 22.092.838 42.888-8.25 55.391z" fill="#ff9100"/><path d="m336.605 254.324c-.849-3.274-1.68-6.572-2.492-9.895-14.803-60.577-20.397-117.191-17.424-159.261.977-13.832 19.12-18.266 26.367-6.443 22.04 35.957 43.187 88.771 57.99 149.348.812 3.322 1.596 6.632 2.352 9.929 19.936 86.873-44.418 102.599-66.793 16.322z" fill="#ff72c3"/><path d="m443.951 262.142c-.529 1.261-1.086 2.525-1.67 3.791-14.023 30.379-40.36 54.102-67.796 64.062-.001.002-.002.004-.003.005-28.804-4.725-59.069-23.181-78.458-50.451-.808-1.136-1.588-2.276-2.341-3.418-12.724-19.295 18.071-24.733 41.81-26.15-.466-1.843-.926-3.693-1.38-5.551-14.804-60.581-20.397-117.197-17.423-159.268 20.883 35.75 40.72 86.374 54.809 144.032.812 3.322 1.596 6.632 2.352 9.928.693 3.02 1.284 5.954 1.779 8.8.843-.146 1.684-.303 2.523-.474 16.703-3.397 77.87-14.068 65.798 14.694z" fill="#ff50b5"/><path d="m409.343 285.334c-9.342 11.26-21.099 16.917-26.26 12.634-5.161-4.282-1.771-16.881 7.571-28.141s21.099-16.917 26.26-12.634c5.161 4.282 1.771 16.881-7.571 28.141zm-61.86-11.489c-11.26-9.342-23.859-12.732-28.141-7.571s1.375 16.918 12.634 26.26c11.26 9.343 23.859 12.732 28.141 7.572s-1.374-16.918-12.634-26.261z" fill="#852968"/><path d="m223.141 500.226c-.865 3.138-26.192 5.206-37.455 1.996-12.574-3.584-24.754-8.106-36.457-13.484-6.545-20.147-21.742-37.092-42.418-45.289-1.876-.744-65.039-234.08-46.537-229.042 123.742 33.697 196.949 162.182 162.867 285.819z" fill="#232e7a"/><path d="m106.811 443.449c-1.876-.744-7.113-2.411-7.797-2.597-9.289-2.53-18.647-3.144-27.656-2.084-6.467.761-11.621-5.33-9.901-11.611l.068-.247c2.76-10.135 3.24-20.353 1.753-30.108-.227-1.489-.499-2.967-.817-4.433-4.581-21.142-18.47-39.642-38.34-49.677-.698-.355-1.555-.71-2.828-3.12-3.166-5.995-2.906-13.256.617-19.048 3.474-5.712 6.215-12 8.059-18.773 6.558-24.082.247-48.631-14.751-66.337-3.026-3.573-6.407-6.868-10.106-9.823-1.152-.92-4.79-13.98-5.107-19.669 9.526.237 26.392 2.524 37.252 4.059 34.487 20.004 52.15 59.384 69.789 95.272 20.356 41.416 32.414 76.091 34.231 114.474.854 18.035-17.332 30.629-34.079 23.88-.128-.055-.257-.106-.387-.158z" fill="#3342ae"/><path d="m197.388 305.251c37.391 55.322 51.361 126.002 32.44 195.483-.884 3.248-1.833 6.461-2.842 9.639-14.148-1.596-27.946-4.345-41.299-8.151 14.685-58.08 6.551-116.76-18.881-166.388z" fill="#ff2ea6"/><path d="m202.552 385.702c-9.617 0-18.21-6.14-21.183-15.285-12.813-39.414-35.795-75.066-66.704-103.036-26.806-24.257 1.173-39.03 23.25-23.403 39.476 27.943 69.151 67.187 85.629 111.789 5.365 14.524-5.509 29.935-20.992 29.935z" fill="#ff50b5"/><path d="m154.553 271.013c-3.978 12.566-19.89 16.233-29.083 6.788-28.608-29.391-65.21-51.751-107.648-63.308-3.119-.85-8.439-1.632-13.013-2.35-3.24-.508-4.914-3.537-4.804-6.827.001-.037-.007-.071 0-.107.56-2.805 3.131-4.771 5.988-4.652 18.029.754 39.648 3.431 57.09 8.181 32.246 8.782 61.122 23.8 85.683 43.4 5.643 4.503 7.966 11.992 5.787 18.875z" fill="#ff72c3"/></g></svg>